<?xml version="1.0" standalone="no"?><!DOCTYPE svg PUBLIC "-//W3C//DTD SVG 1.1//EN" "http://www.w3.org/Graphics/SVG/1.1/DTD/svg11.dtd"><svg t="1717552388069" class="icon" viewBox="0 0 1024 1024" version="1.1" xmlns="http://www.w3.org/2000/svg" p-id="1036" width="128" height="128" xmlns:xlink="http://www.w3.org/1999/xlink"><path d="M512.2048 508.928m-450.816 0a450.816 450.816 0 1 0 901.632 0 450.816 450.816 0 1 0-901.632 0Z" fill="#E3FFF3" p-id="1037"></path><path d="M814.9504 530.5856l-86.5792-263.5776a39.1168 39.1168 0 0 0-37.1712-27.2896H332.8a39.1168 39.1168 0 0 0-37.0176 27.2896L209.408 530.5856a41.9328 41.9328 0 0 0-2.048 12.8512v174.08a39.6288 39.6288 0 0 0 39.0656 40.2432h67.6352a39.2704 39.2704 0 0 0 37.632-29.44l10.24-39.2704a4.8128 4.8128 0 0 1 4.3008-3.84h287.232a4.352 4.352 0 0 1 3.7888 2.6112l25.088 48.5888a38.7584 38.7584 0 0 0 34.5088 21.3504h60.8256a39.6288 39.6288 0 0 0 39.0656-40.1408v-174.08a40.448 40.448 0 0 0-1.792-12.9536zM339.4048 414.2592L360.7552 327.68a16.64 16.64 0 0 1 14.8992-11.008h271.6672a16.6912 16.6912 0 0 1 14.8992 11.008l21.2992 86.6304c5.6832 13.3632-2.4064 29.2864-14.8992 29.2864H354.3552c-12.544-0.0512-20.6336-15.9744-14.9504-29.3376z m47.5648 188.9792H320.8192a21.1968 21.1968 0 0 1-21.1968-21.1968v-29.696a21.248 21.248 0 0 1 21.1968-21.1968h7.8336a58.3168 58.3168 0 0 1 58.3168 58.3168z m341.7088-21.1968a21.1968 21.1968 0 0 1-21.1968 21.1968h-66.1504v-13.7728a58.3168 58.3168 0 0 1 58.3168-58.3168h7.8336a21.1968 21.1968 0 0 1 21.1968 21.1968z" fill="#05C46D" p-id="1038"></path><path d="M728.3712 267.008a39.1168 39.1168 0 0 0-37.1712-27.2896H332.8a39.1168 39.1168 0 0 0-37.0176 27.2896L209.408 530.5856a41.8304 41.8304 0 0 0-2.048 12.8v174.08a39.6288 39.6288 0 0 0 39.0656 40.2944h67.6352a39.2704 39.2704 0 0 0 37.632-29.44l10.24-39.2704a4.8128 4.8128 0 0 1 4.3008-3.84h287.232a4.352 4.352 0 0 1 3.7888 2.6112l0.8704 1.6384a450.56 450.56 0 0 0 129.6896-240.64z m-389.12 147.2512L360.7552 327.68a16.64 16.64 0 0 1 14.8992-11.008h271.6672a16.6912 16.6912 0 0 1 14.8992 11.008l21.2992 86.6304c5.6832 13.3632-2.4064 29.2864-14.8992 29.2864H354.3552c-12.544-0.0512-20.6336-15.9744-14.9504-29.3376z m47.5648 188.9792H320.8192a21.1968 21.1968 0 0 1-21.1968-21.1968v-29.696a21.248 21.248 0 0 1 21.1968-21.1968h7.8336a58.3168 58.3168 0 0 1 58.3168 58.3168z m320.512 0h-65.9968v-13.7728a58.3168 58.3168 0 0 1 58.3168-58.3168h7.8336a21.1968 21.1968 0 0 1 21.1968 21.1968v29.696a21.1968 21.1968 0 0 1-21.1968 21.1968z" fill="#1DCE75" p-id="1039"></path><path d="M221.6448 655.9744A450.56 450.56 0 0 0 604.16 443.5456H354.3552c-12.544 0-20.48-15.9232-14.9504-29.2864L360.7552 327.68a16.64 16.64 0 0 1 14.8992-11.008h271.6672a14.8992 14.8992 0 0 1 10.24 4.1984 450.9696 450.9696 0 0 0 13.6704-81.1008H332.8a39.1168 39.1168 0 0 0-37.0176 27.2896L209.408 530.5856a41.8304 41.8304 0 0 0-2.048 12.8v112.3328c4.7616 0.1536 9.5232 0.256 14.2848 0.256z m77.9776-103.6288a21.248 21.248 0 0 1 21.1968-21.1968h7.8336a58.3168 58.3168 0 0 1 58.3168 58.3168v13.7728H320.8192a21.1968 21.1968 0 0 1-21.1968-21.1968z" fill="#3CD38E" p-id="1040"></path><path d="M339.5072 432.64a23.552 23.552 0 0 1 0-18.3808L360.7552 327.68a16.64 16.64 0 0 1 14.8992-11.008h92.8768a452.864 452.864 0 0 0 46.6944-76.8H332.8a39.1168 39.1168 0 0 0-37.0176 27.2896L225.6896 480.9216a446.7712 446.7712 0 0 0 113.8176-48.2816z" fill="#48E1AA" p-id="1041"></path></svg>